<svg xmlns="http://www.w3.org/2000/svg" width="1024" height="1024" viewBox="0 0 1024 1024">
<g>
<path d="M 444.60 472.77 C443.55,474.00 442.35,475.00 441.93,475.00 C440.71,475.00 436.02,468.67 423.77,450.50 C372.42,374.35 373.05,375.37 368.84,361.96 C365.45,351.16 365.46,332.55 368.87,322.50 C376.08,301.25 389.70,285.25 408.50,275.95 C416.97,271.76 429.93,268.00 435.91,268.00 C436.14,268.00 436.36,268.00 436.57,268.00 C437.55,267.98 438.22,267.98 438.71,268.27 C439.85,268.98 439.94,271.39 440.62,279.50 C440.94,283.35 440.66,290.52 439.99,295.43 C438.90,303.41 438.95,304.49 440.40,305.55 C441.76,306.54 441.17,306.85 436.83,307.43 C426.14,308.85 415.25,316.70 410.17,326.66 C407.17,332.54 405.79,341.62 406.96,347.78 C409.75,362.51 420.87,373.26 436.35,376.19 C439.93,376.87 442.64,377.77 442.39,378.18 C441.71,379.27 441.93,471.08 442.61,472.17 C442.93,472.70 443.89,472.55 444.84,471.82 C446.01,470.91 445.94,471.19 444.60,472.77 ZM 523.76 759.25 L 542.50 759.55 L 523.92 759.77 C513.70,759.90 505.03,759.70 504.67,759.33 C504.30,758.97 504.00,734.38 504.00,704.70 L 504.00 650.74 L 500.25 651.36 C498.19,651.71 494.25,652.42 491.50,652.94 C488.75,653.46 482.54,653.91 477.70,653.94 C450.20,654.13 427.92,639.73 419.24,616.18 C415.93,607.21 415.02,590.34 417.35,581.28 C421.78,563.99 435.84,548.19 452.72,541.51 C459.35,538.89 472.16,536.00 477.16,536.00 L 482.00 536.00 L 481.90 539.75 C481.70,547.40 481.04,548.22 472.96,550.97 C456.68,556.50 450.25,565.31 451.24,580.73 C452.41,598.89 462.88,609.75 480.23,610.79 C485.33,611.10 489.08,610.81 491.23,609.94 C496.76,607.70 502.08,603.77 504.60,600.07 C505.92,598.13 507.00,597.08 507.00,597.75 C507.00,600.63 490.18,615.00 486.81,615.00 C484.37,615.00 484.69,618.50 487.75,625.28 C488.94,627.91 489.91,631.29 489.90,632.78 C489.89,635.76 490.39,638.67 491.32,641.00 C491.65,641.83 492.05,643.85 492.21,645.50 C492.49,648.40 492.69,648.52 498.50,649.00 L 504.50 649.50 L 504.76 704.23 L 505.02 758.96 ZM 434.40 485.00 C434.49,486.29 431.19,486.53 411.00,486.70 C398.08,486.80 386.49,486.48 385.25,485.98 C383.03,485.07 383.00,484.85 383.00,465.61 C383.00,454.92 383.27,445.45 383.61,444.58 C384.11,443.27 386.11,443.00 395.36,443.02 C401.49,443.02 407.00,443.36 407.60,443.77 C409.33,444.91 434.28,483.32 434.40,485.00 ZM 483.50 486.05 C500.28,486.59 500.18,486.60 475.31,486.80 C450.88,486.99 447.85,486.66 449.52,483.97 C450.20,482.87 463.59,483.60 465.47,484.83 C466.04,485.20 474.15,485.75 483.50,486.05 ZM 468.74 460.57 C456.65,474.38 456.11,474.21 466.16,459.78 C475.26,446.72 475.31,446.67 473.13,452.64 C472.13,455.39 470.15,458.96 468.74,460.57 ZM 471.00 477.50 C469.62,479.16 468.00,479.49 468.00,478.11 C468.00,477.62 468.71,476.94 469.58,476.61 C472.03,475.67 472.35,475.87 471.00,477.50 Z" fill="rgb(61,108,93)"/>
<path d="M 0.00 0.00 L 1024.00 0.00 L 1024.00 1024.00 L 0.00 1024.00 ZM 523.76 759.25 L 507.81 759.00 L 545.00 759.00 L 545.00 701.50 C545.00,669.88 545.26,644.00 545.58,644.00 C545.90,644.00 549.39,645.56 553.34,647.46 C568.35,654.67 587.01,656.17 602.20,651.38 C636.11,640.69 654.52,615.56 657.50,575.90 C659.35,551.22 649.97,524.75 633.59,508.43 C625.72,500.59 619.93,496.35 609.50,490.79 L 602.50 487.05 L 613.16 487.03 C628.98,486.99 641.31,482.34 648.65,473.65 C652.41,469.19 656.83,459.45 657.52,454.07 C658.70,444.91 658.80,444.71 662.02,445.35 C664.12,445.77 665.19,445.48 665.85,444.30 C666.67,442.84 666.92,442.90 668.13,444.83 C669.70,447.35 671.54,447.64 672.36,445.50 C672.68,444.68 678.20,436.01 684.62,426.25 C696.62,408.03 702.95,396.10 705.04,387.76 C711.66,361.41 686.46,337.82 660.30,345.86 C641.14,351.75 629.39,372.67 635.50,390.00 C637.45,395.54 637.40,396.28 635.11,395.06 C633.28,394.08 633.28,394.24 635.21,400.28 C637.79,408.38 637.96,418.00 635.63,424.78 C633.83,430.04 633.81,430.06 630.31,429.40 L 626.80 428.74 L 627.15 432.99 C627.50,437.21 627.46,437.27 622.00,440.37 L 616.50 443.50 L 550.00 443.65 C513.42,443.73 482.12,443.85 480.43,443.90 C477.97,443.98 476.97,444.74 475.31,447.75 C474.71,448.85 474.09,450.17 473.59,451.38 C475.25,446.75 474.57,447.72 466.16,459.78 C460.35,468.13 458.08,471.71 459.54,470.56 C454.78,475.73 451.19,481.52 452.21,482.54 C452.51,482.84 454.78,483.27 457.50,483.55 C453.67,483.32 449.87,483.40 449.52,483.97 C447.85,486.66 450.88,486.99 475.31,486.80 C500.18,486.60 500.28,486.59 483.50,486.05 C478.88,485.90 474.55,485.69 471.30,485.47 C478.09,485.84 490.60,486.22 504.52,486.47 C524.86,486.82 545.37,487.53 550.10,488.06 C579.56,491.30 602.95,505.16 612.87,525.26 C622.47,544.71 623.53,566.39 615.86,586.41 C612.69,594.68 604.81,602.96 595.78,607.47 C589.44,610.65 587.91,611.00 580.55,611.00 C563.71,611.00 551.53,604.40 547.33,593.00 C546.42,590.53 545.39,588.17 545.05,587.76 C544.71,587.36 541.97,587.96 538.97,589.10 C534.42,590.83 532.07,591.09 525.00,590.64 C520.33,590.35 514.87,589.81 512.87,589.46 L 509.23 588.81 L 507.87 594.15 C507.54,595.42 507.16,596.56 506.69,597.61 C506.27,597.86 505.49,598.76 504.60,600.07 C502.08,603.77 496.76,607.70 491.23,609.94 C489.08,610.81 485.33,611.10 480.23,610.79 C462.88,609.75 452.41,598.89 451.24,580.73 C450.25,565.31 456.68,556.50 472.96,550.97 C481.04,548.22 481.70,547.40 481.90,539.75 L 482.00 536.00 L 477.16 536.00 C472.16,536.00 459.35,538.89 452.72,541.51 C435.84,548.19 421.78,563.99 417.35,581.28 C415.02,590.34 415.93,607.21 419.24,616.18 C427.92,639.73 450.20,654.13 477.70,653.94 C482.54,653.91 488.75,653.46 491.50,652.94 C494.25,652.42 498.19,651.71 500.25,651.36 L 504.00 650.74 L 504.00 704.70 C504.00,734.38 504.30,758.97 504.67,759.33 C505.03,759.70 513.70,759.90 523.92,759.77 L 542.50 759.55 ZM 444.60 472.77 C445.94,471.19 446.01,470.91 444.84,471.82 C444.39,472.16 443.93,472.38 443.55,472.46 C445.23,471.81 448.94,467.04 456.95,455.50 C467.00,441.01 498.10,394.16 501.75,388.00 C505.80,381.17 510.84,370.41 512.99,364.00 C515.74,355.78 516.75,339.11 515.07,329.48 C511.69,310.10 500.62,292.61 485.00,282.01 C474.86,275.13 462.70,270.00 456.54,270.00 C454.81,270.00 452.93,269.53 452.35,268.95 C451.77,268.37 448.64,268.03 445.40,268.20 C439.75,268.49 439.51,268.61 439.83,271.00 C440.24,274.02 440.51,276.95 440.64,279.80 C440.64,279.70 440.63,279.60 440.62,279.50 C439.94,271.39 439.85,268.98 438.71,268.27 C438.22,267.98 437.55,267.98 436.57,268.00 C436.36,268.00 436.14,268.00 435.91,268.00 C429.93,268.00 416.97,271.76 408.50,275.95 C389.70,285.25 376.08,301.25 368.87,322.50 C365.46,332.55 365.45,351.16 368.84,361.96 C373.05,375.37 372.42,374.35 423.77,450.50 C436.02,468.67 440.71,475.00 441.93,475.00 C442.35,475.00 443.55,474.00 444.60,472.77 ZM 440.76 305.84 C441.91,306.64 443.85,306.94 446.92,307.30 C455.89,308.37 466.63,315.28 471.63,323.21 C475.03,328.59 477.33,339.24 476.56,345.99 C474.82,361.06 461.89,374.68 447.43,376.66 C444.96,377.00 442.72,377.65 442.43,378.11 C442.07,378.69 441.94,402.99 441.99,426.75 C441.93,403.01 442.04,378.74 442.39,378.18 C442.64,377.77 439.93,376.87 436.35,376.19 C420.87,373.26 409.75,362.51 406.96,347.78 C405.79,341.62 407.17,332.54 410.17,326.66 C415.25,316.70 426.14,308.85 436.83,307.43 C440.72,306.91 441.59,306.61 440.76,305.84 ZM 515.50 577.13 C520.16,579.26 530.48,579.61 534.70,577.80 C551.35,570.62 556.64,551.85 546.12,537.32 C539.73,528.50 526.09,525.40 515.50,530.36 C505.42,535.07 500.06,543.19 500.02,553.78 C499.99,564.25 505.50,572.58 515.50,577.13 ZM 434.40 485.00 C434.28,483.32 409.33,444.91 407.60,443.77 C407.00,443.36 401.49,443.02 395.36,443.02 C386.11,443.00 384.11,443.27 383.61,444.58 C383.27,445.45 383.00,454.92 383.00,465.61 C383.00,484.85 383.03,485.07 385.25,485.98 C386.49,486.48 398.08,486.80 411.00,486.70 C431.19,486.53 434.49,486.29 434.40,485.00 ZM 563.58 421.00 C562.93,432.18 563.00,433.00 564.69,432.98 C567.85,432.96 568.93,431.56 571.40,424.29 C573.79,417.28 576.00,411.77 578.32,407.11 C579.12,405.49 581.74,403.87 586.50,402.04 C596.02,398.39 597.97,397.23 598.95,394.68 C599.99,391.94 597.64,389.00 594.40,389.00 C593.14,389.00 588.45,390.15 583.99,391.56 L 575.89 394.12 L 571.19 391.87 C568.61,390.62 563.08,387.45 558.91,384.80 C554.73,382.16 550.61,380.00 549.74,380.00 C547.40,380.00 545.00,381.09 545.00,382.15 C545.00,382.66 548.67,386.68 553.15,391.09 C557.63,395.49 560.90,399.44 560.40,399.85 C559.91,400.26 556.92,401.63 553.76,402.89 L 548.03 405.18 L 544.53 403.02 C540.97,400.82 535.95,400.59 535.29,402.60 C534.77,404.19 543.87,414.00 545.84,413.98 C546.75,413.98 551.10,412.85 555.50,411.49 C559.90,410.12 563.68,409.00 563.89,409.00 C564.11,409.00 563.97,414.40 563.58,421.00 ZM 676.28 396.64 C665.52,401.19 653.00,392.24 653.00,379.99 C653.00,374.74 655.06,370.82 659.67,367.30 C662.91,364.83 664.19,364.50 670.60,364.50 C678.38,364.50 681.29,365.82 685.30,371.20 C687.99,374.81 688.65,382.11 686.66,386.30 C684.58,390.68 680.31,394.94 676.28,396.64 ZM 966.07 988.25 C966.80,990.31 967.70,992.00 968.07,992.00 C968.43,992.00 969.54,989.87 970.54,987.26 C972.90,981.08 981.08,972.90 987.26,970.54 C989.87,969.54 992.00,968.40 992.00,968.00 C992.00,967.60 989.87,966.46 987.26,965.46 C984.49,964.40 980.41,961.54 977.43,958.57 C974.46,955.59 971.60,951.51 970.54,948.74 C968.45,943.28 967.42,942.81 966.52,946.91 C965.01,953.80 955.78,963.22 947.75,966.07 C943.25,967.67 943.01,968.62 946.91,969.48 C953.80,970.99 963.22,980.22 966.07,988.25 ZM 531.09 564.45 C527.45,566.34 524.51,566.36 520.33,564.54 C510.58,560.30 511.69,544.78 521.94,542.02 C532.89,539.07 541.81,550.25 536.04,559.70 C534.97,561.46 532.74,563.60 531.09,564.45 ZM 675.17 431.35 C672.77,433.52 669.71,433.45 667.65,431.17 C664.15,427.30 666.37,422.00 671.50,422.00 C676.71,422.00 679.02,427.87 675.17,431.35 ZM 532.04 439.07 C532.60,440.13 533.23,441.00 533.44,441.00 C535.19,441.00 547.48,434.91 547.40,434.08 C547.34,433.49 547.23,432.33 547.15,431.50 C547.07,430.67 546.37,430.00 545.59,430.00 C543.79,430.00 531.00,435.72 531.00,436.52 C531.00,436.86 531.47,438.00 532.04,439.07 ZM 601.25 429.80 C610.36,431.47 611.00,431.36 611.00,428.17 C611.00,425.43 610.75,425.29 604.25,424.30 C600.54,423.73 597.16,423.45 596.75,423.69 C596.34,423.93 596.00,425.18 596.00,426.48 C596.00,428.55 596.67,428.97 601.25,429.80 ZM 664.00 439.25 C664.00,440.04 663.58,440.05 660.75,439.31 C659.54,438.99 659.01,437.88 659.04,435.68 L 659.07 432.50 L 661.53 435.50 C662.88,437.15 663.99,438.84 664.00,439.25 ZM 469.94 458.94 C470.99,457.35 472.10,455.23 472.85,453.36 C472.77,453.62 472.71,453.86 472.66,454.06 C472.37,455.29 471.52,456.84 469.94,458.94 ZM 500.48 605.42 C494.88,610.64 488.74,615.00 486.81,615.00 C488.78,615.00 495.36,610.08 500.48,605.42 ZM 439.99 295.43 C439.17,301.45 438.92,304.16 440.41,305.56 L 440.40 305.55 C438.95,304.49 438.90,303.41 439.99,295.43 ZM 440.75 284.22 C440.74,288.03 440.49,291.74 439.99,295.43 C440.44,292.15 440.71,287.85 440.75,284.22 ZM 465.91 484.95 C465.68,484.91 465.54,484.87 465.47,484.83 C465.43,484.80 465.37,484.77 465.31,484.74 C465.56,484.81 465.76,484.88 465.91,484.95 ZM 442.38 468.05 C442.45,470.54 442.53,472.02 442.62,472.19 C442.61,472.18 442.61,472.18 442.61,472.17 C442.52,472.04 442.45,470.56 442.38,468.05 Z" fill="rgb(74,74,74)"/>
<path d="M 582.00 651.50 C583.55,653.37 587.10,653.38 598.36,651.55 C603.14,650.78 607.82,649.42 612.31,647.56 C609.11,648.99 605.74,650.27 602.20,651.38 C587.01,656.17 568.35,654.67 553.34,647.46 C549.39,645.56 545.90,644.00 545.58,644.00 C545.26,644.00 545.00,669.88 545.00,701.50 L 545.00 759.00 L 507.81 759.00 L 505.02 758.96 L 504.76 704.23 L 504.50 649.50 L 498.50 649.00 C492.69,648.52 492.49,648.40 492.21,645.50 C492.05,643.85 491.65,641.83 491.32,641.00 C490.39,638.67 489.89,635.76 489.90,632.78 C489.91,631.29 488.94,627.91 487.75,625.28 C484.69,618.50 484.37,615.00 486.81,615.00 L 486.81 615.00 C488.73,615.00 494.88,610.64 500.48,605.42 L 500.48 605.42 C504.11,602.11 507.00,598.94 507.00,597.75 C507.00,597.53 506.89,597.50 506.69,597.61 C507.16,596.56 507.54,595.42 507.87,594.15 L 509.23 588.81 L 512.87 589.46 C514.87,589.81 520.33,590.35 525.00,590.64 C532.07,591.09 534.42,590.83 538.97,589.10 C541.97,587.96 544.71,587.36 545.05,587.76 C545.39,588.17 546.42,590.53 547.33,593.00 C551.53,604.40 563.71,611.00 580.55,611.00 C587.91,611.00 589.44,610.65 595.78,607.47 C596.01,607.36 596.24,607.24 596.46,607.12 C592.59,609.40 588.95,611.00 587.02,611.00 C586.08,611.00 584.35,611.83 583.19,612.84 C581.33,614.44 581.20,615.13 582.08,618.34 C582.64,620.35 583.50,622.00 584.00,622.00 C585.08,622.00 586.99,628.43 586.99,632.13 C587.00,633.57 586.33,635.32 585.50,636.00 C583.46,637.69 583.61,639.00 585.85,639.00 C586.86,639.00 588.49,639.88 589.46,640.95 C591.16,642.84 591.13,642.93 588.56,643.57 C586.67,644.05 585.74,645.07 585.33,647.12 C584.92,649.14 584.15,650.00 582.75,650.00 C581.09,650.00 580.96,650.25 582.00,651.50 ZM 468.74 460.57 C469.11,460.15 469.52,459.59 469.94,458.94 C471.52,456.84 472.37,455.29 472.66,454.06 C472.71,453.86 472.77,453.62 472.85,453.36 C472.95,453.11 473.05,452.87 473.13,452.64 C473.30,452.18 473.45,451.76 473.59,451.38 C474.09,450.17 474.71,448.85 475.31,447.75 C476.97,444.74 477.97,443.98 480.43,443.90 C481.52,443.87 494.86,443.81 513.97,443.75 C512.52,444.29 510.57,445.21 507.94,446.53 C501.06,450.00 500.75,450.46 503.21,453.66 C503.86,454.52 505.89,454.03 510.80,451.82 C518.91,448.17 519.38,447.77 518.53,445.10 C518.35,444.52 518.13,444.06 517.85,443.74 C527.54,443.71 538.51,443.68 550.00,443.65 L 615.79 443.50 L 614.83 444.00 L 597.93 444.00 C584.86,444.00 580.15,444.36 577.08,445.58 C572.84,447.28 572.65,448.65 576.17,452.17 C578.17,454.17 578.57,456.00 577.00,456.00 C575.66,456.00 575.72,460.71 577.07,461.54 C577.66,461.91 577.90,462.82 577.61,463.57 C577.32,464.32 577.52,465.20 578.04,465.53 C578.57,465.85 579.00,467.64 579.00,469.50 C579.00,471.36 579.47,473.17 580.05,473.53 C580.72,473.95 580.76,474.59 580.14,475.34 C579.61,475.98 578.88,478.08 578.52,480.01 C577.94,483.13 578.21,483.78 580.93,485.79 C584.16,488.18 585.10,492.00 582.46,492.00 C581.23,492.00 581.33,492.44 582.96,494.19 C584.08,495.39 585.00,496.70 585.00,497.09 C585.00,497.49 587.07,499.03 589.61,500.51 C590.84,501.23 592.75,502.64 594.84,504.32 C583.15,495.73 567.71,490.00 550.10,488.06 C545.37,487.53 524.86,486.82 504.52,486.47 C490.60,486.22 478.09,485.84 471.30,485.47 L 471.30 485.47 C468.68,485.30 466.75,485.11 465.91,484.95 C465.76,484.88 465.56,484.81 465.31,484.74 C464.20,484.19 460.84,483.75 457.50,483.55 C454.78,483.27 452.51,482.84 452.21,482.54 C452.01,482.34 451.99,481.98 452.10,481.47 C452.90,482.51 458.20,481.04 462.82,478.37 C463.51,477.98 459.90,472.00 458.98,472.00 C458.41,472.00 456.41,474.27 454.70,476.58 C456.00,474.69 457.68,472.58 459.54,470.56 C460.60,469.72 463.64,466.39 468.74,460.57 ZM 442.38 468.05 C442.18,460.52 442.04,443.77 441.99,426.75 C441.94,402.99 442.07,378.69 442.43,378.11 C442.72,377.65 444.96,377.00 447.43,376.66 C461.89,374.68 474.82,361.06 476.56,345.99 C477.21,340.30 475.67,331.82 473.13,326.08 C473.30,326.39 473.46,326.70 473.61,327.00 C476.64,333.11 478.47,334.92 481.63,334.97 C484.47,335.01 486.96,338.86 485.94,341.63 C485.45,342.95 485.69,344.78 486.58,346.49 C488.45,350.09 488.37,352.01 486.31,353.52 C485.17,354.35 483.66,354.47 481.64,353.90 C478.03,352.86 476.38,354.00 475.47,358.13 C475.06,360.01 473.92,361.46 472.41,362.04 C470.74,362.67 470.00,363.73 470.00,365.48 C470.00,368.79 472.68,368.81 474.18,365.50 C475.63,362.32 478.77,362.26 479.96,365.40 C481.33,369.01 483.14,369.67 484.80,367.17 C485.60,365.98 486.88,365.00 487.66,365.00 C489.99,365.00 491.68,362.76 491.21,360.30 C490.63,357.30 492.07,357.38 495.00,360.50 C496.29,361.88 497.83,363.00 498.42,363.01 C499.02,363.01 500.01,364.12 500.64,365.48 C501.56,367.46 501.49,368.18 500.24,369.22 C498.35,370.79 487.97,371.21 486.25,369.79 C484.49,368.34 484.69,370.12 486.59,372.82 C487.46,374.07 487.93,375.73 487.63,376.51 C487.33,377.30 487.51,378.20 488.02,378.51 C488.58,378.86 488.47,379.88 487.75,381.02 C486.84,382.49 486.83,383.23 487.71,384.11 C489.24,385.64 486.99,388.00 484.01,388.00 C482.84,388.00 482.15,388.43 482.47,388.96 C482.80,389.48 483.65,389.69 484.37,389.41 C485.73,388.89 485.78,389.04 486.40,395.67 C486.61,397.96 487.10,400.35 487.48,400.96 C488.52,402.66 492.14,401.13 495.38,397.62 C495.69,397.28 495.99,396.92 496.29,396.55 C486.00,412.37 464.90,444.04 456.95,455.50 C448.94,467.04 445.23,471.81 443.55,472.46 C443.13,472.54 442.79,472.45 442.62,472.19 C442.53,472.02 442.45,470.54 442.38,468.05 ZM 440.76 305.84 C440.66,305.75 440.55,305.66 440.41,305.56 C438.92,304.16 439.17,301.45 439.99,295.43 C440.44,292.15 440.71,287.85 440.75,284.22 C440.77,282.55 440.73,281.03 440.64,279.80 C440.51,276.95 440.24,274.02 439.83,271.00 C439.51,268.61 439.75,268.49 445.40,268.20 C448.64,268.03 451.77,268.37 452.35,268.95 C452.93,269.53 454.81,270.00 456.54,270.00 C459.87,270.00 464.94,271.50 470.51,273.96 C464.33,271.44 458.03,269.96 452.00,269.76 L 444.50 269.50 L 444.54 275.25 C444.68,299.13 445.01,304.00 446.48,304.00 C448.79,304.00 465.00,311.97 465.00,313.11 C465.00,313.66 466.32,315.78 467.94,317.81 C468.70,318.77 469.68,320.20 470.65,321.77 C465.32,314.46 455.34,308.30 446.92,307.30 C443.85,306.94 441.91,306.64 440.76,305.84 ZM 474.17 467.90 C474.89,469.06 475.83,470.00 476.27,470.00 C477.88,470.00 491.00,462.94 491.00,462.07 C491.00,460.05 489.71,458.00 488.43,458.00 C487.41,458.00 475.41,463.96 473.18,465.57 C473.01,465.70 473.45,466.75 474.17,467.90 ZM 555.35 411.53 C551.00,412.88 546.74,413.98 545.84,413.98 C543.87,414.00 534.77,404.19 535.29,402.60 C535.95,400.59 540.97,400.82 544.53,403.02 L 547.91 405.11 C546.17,405.62 545.10,405.28 542.16,403.96 C539.83,402.92 538.19,402.50 538.52,403.03 C538.85,403.56 538.60,404.00 537.97,404.00 C537.35,404.00 538.10,405.35 539.66,407.00 C541.22,408.65 543.06,410.00 543.75,410.00 C544.44,410.00 545.00,410.44 545.00,410.98 C545.00,412.85 549.40,412.94 555.35,411.53 ZM 499.25 391.98 C500.81,388.99 501.92,385.66 502.32,382.59 C502.60,380.44 503.50,378.30 504.34,377.83 C505.17,377.37 506.37,375.41 507.00,373.49 C507.64,371.57 508.65,370.00 509.24,370.00 C509.84,370.00 510.04,369.71 509.68,369.35 C509.33,368.99 509.83,367.98 510.81,367.10 C511.84,366.17 512.69,364.74 513.39,362.71 C513.26,363.16 513.12,363.59 512.99,364.00 C510.84,370.41 505.80,381.17 501.75,388.00 C501.30,388.76 500.44,390.13 499.25,391.98 ZM 563.74 430.41 C564.22,430.88 567.85,430.51 569.17,429.95 C567.92,432.37 566.75,432.97 564.69,432.98 C563.01,433.00 562.93,432.18 563.58,421.07 C563.34,426.03 563.40,430.06 563.74,430.41 ZM 471.00 477.50 C472.35,475.87 472.03,475.67 469.58,476.61 C468.71,476.94 468.00,477.62 468.00,478.11 C468.00,479.49 469.62,479.16 471.00,477.50 ZM 648.77 612.06 C654.40,599.39 657.78,582.33 657.71,568.14 C657.76,570.74 657.69,573.33 657.50,575.90 C656.46,589.71 653.55,601.77 648.77,612.06 ZM 515.54 349.43 C515.60,348.62 515.65,347.79 515.69,346.93 C516.24,336.80 515.06,327.19 512.22,318.34 C513.45,321.96 514.41,325.68 515.07,329.48 C516.00,334.84 516.11,342.38 515.54,349.43 ZM 616.41 584.95 C619.46,576.47 620.97,567.72 620.93,558.98 C621.08,568.28 619.55,577.25 616.41,584.95 ZM 627.24 434.24 L 627.50 437.42 L 623.76 439.36 C627.00,437.46 627.40,436.85 627.24,434.24 ZM 656.67 556.04 C655.20,547.26 652.74,539.05 649.38,531.61 C652.88,539.27 655.36,547.58 656.67,556.04 ZM 605.71 514.40 C608.68,517.69 610.60,520.68 612.82,525.17 C610.92,521.34 608.54,517.74 605.71,514.40 ZM 556.35 401.82 C558.41,400.93 560.05,400.15 560.40,399.85 C560.43,399.82 560.45,399.78 560.45,399.72 C560.46,399.81 560.44,399.87 560.40,399.91 C559.91,400.36 558.15,401.19 556.50,401.77 C556.45,401.78 556.40,401.80 556.35,401.82 ZM 571.58 423.78 C572.69,420.34 574.20,416.38 575.73,412.77 C574.36,416.00 573.00,419.62 571.58,423.78 ZM 563.70 418.89 C563.85,415.95 563.95,413.36 563.98,411.58 C564.01,413.08 563.91,415.41 563.70,418.89 ZM 563.33 409.14 C563.05,409.21 562.69,409.31 562.25,409.44 C562.47,409.36 562.69,409.28 562.91,409.20 C563.07,409.14 563.21,409.11 563.33,409.14 ZM 493.71 289.08 C492.38,287.81 491.00,286.59 489.59,285.43 C491.01,286.59 492.39,287.80 493.71,289.08 ZM 577.34 409.13 C577.67,408.42 578.00,407.75 578.31,407.11 C578.53,406.67 578.89,406.22 579.39,405.77 C578.89,406.22 578.54,406.67 578.32,407.11 C577.99,407.77 577.67,408.44 577.34,409.13 Z" fill="rgb(100,143,106)"/>
<path d="M 676.28 396.64 C680.31,394.94 684.58,390.68 686.66,386.30 C687.96,383.57 688.13,379.51 687.35,376.02 C687.85,378.15 688.02,380.56 687.84,383.28 C687.53,388.00 687.71,388.53 689.67,388.81 C690.86,388.98 693.33,390.67 695.17,392.57 C699.65,397.22 701.93,396.84 704.09,390.95 C701.33,399.08 695.17,410.24 684.62,426.25 C678.20,436.01 672.68,444.68 672.36,445.50 C671.54,447.64 669.70,447.35 668.13,444.83 C666.92,442.90 666.67,442.84 665.85,444.30 C665.56,444.82 665.19,445.17 664.69,445.36 C665.35,445.04 665.65,444.35 665.82,443.17 C666.05,441.59 665.42,440.73 663.50,440.00 C663.34,439.94 663.19,439.88 663.04,439.83 C663.84,439.93 664.00,439.74 664.00,439.25 C663.99,438.84 662.88,437.15 661.53,435.50 L 659.07 432.50 L 659.04 435.68 C659.01,437.54 659.39,438.63 660.24,439.11 C659.20,439.14 659.00,439.99 659.00,441.93 C659.00,443.89 659.40,444.74 660.65,445.14 C658.74,445.02 658.51,446.43 657.52,454.07 C656.83,459.45 652.41,469.19 648.65,473.65 C641.31,482.34 628.98,486.99 613.16,487.03 L 602.50 487.05 L 609.50 490.79 C619.93,496.35 625.72,500.59 633.59,508.43 C640.02,514.84 645.37,522.80 649.38,531.61 L 649.39 531.62 C652.74,539.06 655.20,547.26 656.67,556.04 C657.29,560.06 657.64,564.11 657.71,568.14 C657.78,582.33 654.40,599.39 648.77,612.06 C641.25,628.23 629.10,640.06 612.31,647.56 C607.82,649.42 603.14,650.78 598.36,651.55 C587.10,653.38 583.55,653.37 582.00,651.50 C580.96,650.25 581.09,650.00 582.75,650.00 C584.15,650.00 584.92,649.14 585.33,647.12 C585.74,645.07 586.67,644.05 588.56,643.57 C591.13,642.93 591.16,642.84 589.46,640.95 C588.49,639.88 586.86,639.00 585.85,639.00 C583.61,639.00 583.46,637.69 585.50,636.00 C586.33,635.32 587.00,633.57 586.99,632.13 C586.99,628.43 585.08,622.00 584.00,622.00 C583.50,622.00 582.64,620.35 582.08,618.34 C581.20,615.13 581.33,614.44 583.19,612.84 C584.35,611.83 586.08,611.00 587.02,611.00 C588.95,611.00 592.59,609.40 596.46,607.12 C605.20,602.54 612.77,594.47 615.86,586.41 C616.05,585.92 616.23,585.44 616.41,584.95 C619.55,577.25 621.08,568.28 620.93,558.98 C620.89,547.50 618.19,536.04 612.87,525.26 L 612.82 525.17 L 612.82 525.17 C610.92,521.34 608.54,517.74 605.71,514.40 C602.60,510.72 598.95,507.34 594.84,504.32 C592.75,502.64 590.84,501.23 589.61,500.51 C587.07,499.03 585.00,497.49 585.00,497.09 C585.00,496.70 584.08,495.39 582.96,494.19 C581.33,492.44 581.23,492.00 582.46,492.00 C585.10,492.00 584.16,488.18 580.93,485.79 C578.21,483.78 577.94,483.13 578.52,480.01 C578.88,478.08 579.61,475.98 580.14,475.34 C580.76,474.59 580.72,473.95 580.05,473.53 C579.47,473.17 579.00,471.36 579.00,469.50 C579.00,467.64 578.57,465.85 578.04,465.53 C577.52,465.20 577.32,464.32 577.61,463.57 C577.90,462.82 577.66,461.91 577.07,461.54 C575.72,460.71 575.66,456.00 577.00,456.00 C578.57,456.00 578.17,454.17 576.17,452.17 C572.65,448.65 572.84,447.28 577.08,445.58 C580.15,444.36 584.86,444.00 597.93,444.00 L 614.83 444.00 L 615.79 443.50 L 616.50 443.50 L 622.00 440.37 C622.66,439.99 623.25,439.66 623.76,439.36 L 627.50 437.42 L 627.24 434.24 C627.24,434.10 627.23,433.95 627.21,433.80 C627.62,434.85 628.73,435.21 631.75,435.85 C634.36,436.42 637.62,437.31 639.00,437.85 C640.93,438.60 641.78,438.45 642.75,437.22 C644.90,434.46 644.14,433.12 639.75,431.93 C637.41,431.29 634.20,430.37 632.60,429.89 C632.32,429.80 632.06,429.72 631.81,429.65 C633.87,429.90 634.13,429.15 635.63,424.78 C637.96,418.00 637.79,408.38 635.21,400.28 C633.28,394.24 633.28,394.08 635.11,395.06 C637.40,396.28 637.45,395.54 635.50,390.00 C629.39,372.67 641.14,351.75 660.30,345.86 C667.72,343.59 675.05,343.85 681.61,345.99 C677.09,344.76 672.21,344.61 667.12,345.62 C663.54,346.34 663.10,347.96 666.01,349.78 C667.40,350.64 667.87,351.73 667.51,353.27 C667.23,354.50 666.81,357.19 666.57,359.25 C666.16,362.91 666.23,363.00 669.45,363.00 C672.08,363.00 675.35,363.94 678.29,365.41 C676.29,364.73 673.88,364.50 670.60,364.50 C664.19,364.50 662.91,364.83 659.67,367.30 C655.06,370.82 653.00,374.74 653.00,379.99 C653.00,392.24 665.52,401.19 676.28,396.64 ZM 515.54 349.43 C515.14,354.41 514.40,359.16 513.39,362.71 C512.69,364.74 511.84,366.17 510.81,367.10 C509.83,367.98 509.33,368.99 509.68,369.35 C510.04,369.71 509.84,370.00 509.24,370.00 C508.65,370.00 507.64,371.57 507.00,373.49 C506.37,375.41 505.17,377.37 504.34,377.83 C503.50,378.30 502.60,380.44 502.32,382.59 C501.92,385.66 500.81,388.99 499.25,391.98 C498.42,393.28 497.42,394.82 496.29,396.55 C495.99,396.92 495.69,397.28 495.38,397.62 C492.14,401.13 488.52,402.66 487.48,400.96 C487.10,400.35 486.61,397.96 486.40,395.67 C485.78,389.04 485.73,388.89 484.37,389.41 C483.65,389.69 482.80,389.48 482.47,388.96 C482.15,388.43 482.84,388.00 484.01,388.00 C486.99,388.00 489.24,385.64 487.71,384.11 C486.83,383.23 486.84,382.49 487.75,381.02 C488.47,379.88 488.58,378.86 488.02,378.51 C487.51,378.20 487.33,377.30 487.63,376.51 C487.93,375.73 487.46,374.07 486.59,372.82 C484.69,370.12 484.49,368.34 486.25,369.79 C487.97,371.21 498.35,370.79 500.24,369.22 C501.49,368.18 501.56,367.46 500.64,365.48 C500.01,364.12 499.02,363.01 498.42,363.01 C497.83,363.00 496.29,361.88 495.00,360.50 C492.07,357.38 490.63,357.30 491.21,360.30 C491.68,362.76 489.99,365.00 487.66,365.00 C486.88,365.00 485.60,365.98 484.80,367.17 C483.14,369.67 481.33,369.01 479.96,365.40 C478.77,362.26 475.63,362.32 474.18,365.50 C472.68,368.81 470.00,368.79 470.00,365.48 C470.00,363.73 470.74,362.67 472.41,362.04 C473.92,361.46 475.06,360.01 475.47,358.13 C476.38,354.00 478.03,352.86 481.64,353.90 C483.66,354.47 485.17,354.35 486.31,353.52 C488.37,352.01 488.45,350.09 486.58,346.49 C485.69,344.78 485.45,342.95 485.94,341.63 C486.96,338.86 484.47,335.01 481.63,334.97 C478.47,334.92 476.64,333.11 473.61,327.00 C473.46,326.70 473.30,326.39 473.13,326.08 C472.67,325.02 472.16,324.05 471.63,323.21 C471.33,322.73 471.00,322.25 470.65,321.77 C469.68,320.20 468.70,318.77 467.94,317.81 C466.32,315.78 465.00,313.66 465.00,313.11 C465.00,311.97 448.79,304.00 446.48,304.00 C445.01,304.00 444.68,299.13 444.54,275.25 L 444.50 269.50 L 452.00 269.76 C458.03,269.96 464.33,271.44 470.51,273.96 C475.24,276.05 480.33,278.85 485.00,282.01 C486.58,283.08 488.11,284.22 489.59,285.43 C491.00,286.59 492.38,287.81 493.71,289.08 C502.02,297.04 508.42,307.16 512.22,318.34 L 512.22 318.34 C515.06,327.19 516.24,336.80 515.69,346.93 C515.65,347.79 515.60,348.62 515.54,349.42 ZM 563.58 421.00 C563.62,420.28 563.66,419.58 563.70,418.89 C563.91,415.41 564.01,413.08 563.98,411.58 C564.01,409.97 563.98,409.00 563.89,409.00 C563.85,409.00 563.65,409.05 563.33,409.14 C563.21,409.11 563.07,409.14 562.91,409.20 C562.69,409.28 562.47,409.36 562.25,409.44 C560.70,409.89 558.22,410.64 555.50,411.49 L 555.35 411.53 C549.40,412.94 545.00,412.85 545.00,410.98 C545.00,410.44 544.44,410.00 543.75,410.00 C543.06,410.00 541.22,408.65 539.66,407.00 C538.10,405.35 537.35,404.00 537.97,404.00 C538.60,404.00 538.85,403.56 538.52,403.03 C538.19,402.50 539.83,402.92 542.16,403.96 C545.10,405.28 546.17,405.62 547.91,405.11 L 548.03 405.18 L 553.76 402.89 C554.66,402.53 555.54,402.17 556.35,401.82 C556.40,401.80 556.45,401.78 556.50,401.77 C558.15,401.19 559.91,400.36 560.40,399.91 C560.44,399.87 560.46,399.81 560.45,399.72 C560.46,398.91 557.34,395.20 553.15,391.09 C548.67,386.68 545.00,382.66 545.00,382.15 C545.00,381.09 547.40,380.00 549.74,380.00 C550.61,380.00 554.73,382.16 558.91,384.80 C563.08,387.45 568.61,390.62 571.19,391.87 L 575.89 394.12 L 583.99 391.56 C588.45,390.15 593.14,389.00 594.40,389.00 C597.64,389.00 599.99,391.94 598.95,394.68 C597.97,397.23 596.02,398.39 586.50,402.04 C583.04,403.37 580.72,404.58 579.39,405.77 C578.89,406.22 578.53,406.67 578.31,407.11 C578.00,407.75 577.67,408.42 577.34,409.13 C576.80,410.29 576.27,411.50 575.73,412.77 C574.20,416.38 572.69,420.34 571.58,423.78 C571.52,423.95 571.46,424.12 571.40,424.29 C570.54,426.83 569.84,428.65 569.17,429.95 C567.85,430.51 564.22,430.88 563.74,430.41 C563.40,430.06 563.34,426.03 563.58,421.07 ZM 675.17 431.35 C679.02,427.87 676.71,422.00 671.50,422.00 C666.37,422.00 664.15,427.30 667.65,431.17 C669.71,433.45 672.77,433.52 675.17,431.35 ZM 696.03 354.96 C704.08,363.14 708.21,375.13 705.04,387.76 C706.71,380.50 705.86,371.24 702.78,364.97 C700.88,361.10 698.61,357.75 696.03,354.96 ZM 628.57 429.07 C627.46,429.15 627.08,429.85 627.01,431.31 L 626.80 428.74 ZM 685.22 371.09 C684.74,370.45 684.27,369.87 683.81,369.34 C684.33,369.89 684.80,370.47 685.22,371.09 Z" fill="rgb(128,167,120)"/>
<path d="M 696.03 354.96 C698.61,357.75 700.88,361.10 702.78,364.97 C705.86,371.24 706.71,380.50 705.04,387.76 C704.79,388.77 704.47,389.83 704.09,390.95 C701.93,396.84 699.65,397.22 695.17,392.57 C693.33,390.67 690.86,388.98 689.67,388.81 C687.71,388.53 687.53,388.00 687.84,383.28 C688.02,380.56 687.85,378.15 687.35,376.02 C686.93,374.16 686.24,372.45 685.30,371.20 L 685.22 371.09 L 685.21 371.07 C684.79,370.46 684.33,369.89 683.81,369.34 C682.08,367.36 680.43,366.13 678.29,365.41 C675.35,363.94 672.08,363.00 669.45,363.00 C666.23,363.00 666.16,362.91 666.57,359.25 C666.81,357.19 667.23,354.50 667.51,353.27 C667.87,351.73 667.40,350.64 666.01,349.78 C663.10,347.96 663.54,346.34 667.12,345.62 C672.21,344.61 677.09,344.76 681.61,345.99 C687.10,347.79 692.04,350.90 696.03,354.96 ZM 966.07 988.25 C963.22,980.22 953.80,970.99 946.91,969.48 C943.01,968.62 943.25,967.67 947.75,966.07 C955.78,963.22 965.01,953.80 966.52,946.91 C967.42,942.81 968.45,943.28 970.54,948.74 C971.60,951.51 974.46,955.59 977.43,958.57 C980.41,961.54 984.49,964.40 987.26,965.46 C989.87,966.46 992.00,967.60 992.00,968.00 C992.00,968.40 989.87,969.54 987.26,970.54 C981.08,972.90 972.90,981.08 970.54,987.26 C969.54,989.87 968.43,992.00 968.07,992.00 C967.70,992.00 966.80,990.31 966.07,988.25 Z" fill="rgb(164,179,150)"/>
<path d="M 515.50 577.13 C505.50,572.58 499.99,564.25 500.02,553.78 C500.06,543.19 505.42,535.07 515.50,530.36 C526.09,525.40 539.73,528.50 546.12,537.32 C556.64,551.85 551.35,570.62 534.70,577.80 C530.48,579.61 520.16,579.26 515.50,577.13 ZM 531.09 564.45 C532.74,563.60 534.97,561.46 536.04,559.70 C541.81,550.25 532.89,539.07 521.94,542.02 C511.69,544.78 510.58,560.30 520.33,564.54 C524.51,566.36 527.45,566.34 531.09,564.45 ZM 452.00 481.15 C452.00,479.77 457.93,472.00 458.98,472.00 C459.90,472.00 463.51,477.98 462.82,478.37 C457.81,481.27 452.00,482.76 452.00,481.15 ZM 474.17 467.90 C473.45,466.75 473.01,465.70 473.18,465.57 C475.41,463.96 487.41,458.00 488.43,458.00 C489.71,458.00 491.00,460.05 491.00,462.07 C491.00,462.94 477.88,470.00 476.27,470.00 C475.83,470.00 474.89,469.06 474.17,467.90 ZM 503.21 453.66 C500.75,450.46 501.06,450.00 507.94,446.53 C516.07,442.44 517.62,442.23 518.53,445.10 C519.38,447.77 518.91,448.17 510.80,451.82 C505.89,454.03 503.86,454.52 503.21,453.66 ZM 661.25 445.29 C659.53,444.96 659.00,444.18 659.00,441.93 C659.00,438.73 659.55,438.50 663.50,440.00 C665.42,440.73 666.05,441.59 665.82,443.17 C665.47,445.55 664.65,445.93 661.25,445.29 ZM 532.04 439.07 C531.47,438.00 531.00,436.86 531.00,436.52 C531.00,435.72 543.79,430.00 545.59,430.00 C546.37,430.00 547.07,430.67 547.15,431.50 C547.23,432.33 547.34,433.49 547.40,434.08 C547.48,434.91 535.19,441.00 533.44,441.00 C533.23,441.00 532.60,440.13 532.04,439.07 ZM 639.00 437.85 C637.62,437.31 634.36,436.42 631.75,435.85 C627.40,434.92 627.00,434.59 627.00,431.92 C627.00,428.76 627.88,428.44 632.60,429.89 C634.20,430.37 637.41,431.29 639.75,431.93 C644.14,433.12 644.90,434.46 642.75,437.22 C641.78,438.45 640.93,438.60 639.00,437.85 ZM 601.25 429.80 C596.67,428.97 596.00,428.55 596.00,426.48 C596.00,425.18 596.34,423.93 596.75,423.69 C597.16,423.45 600.54,423.73 604.25,424.30 C610.75,425.29 611.00,425.43 611.00,428.17 C611.00,431.36 610.36,431.47 601.25,429.80 Z" fill="rgb(241,142,87)"/>
</g>
</svg>